# xmcd
#
# Track frame offsets:
#	150
#	21300
#	36075
#	52575
#	69525
#	85725
#	101250
#	116700
#	132900
#	146550
#	164250
#	184575
#	195750
#	209100
#	227250
#	241500
#	254250
#	270450
#
# Disc length: 3834 seconds
#
# Revision: 0
# Processed by: cddbd v1.5.2PL0 Copyright (c) Steve Scherf et al.
# Submitted via: audiograbber 1.83.01
#
DISCID=e40ef812
DTITLE=Various Artist - PCDG220
DYEAR=1900
DGENRE=Karaoke Country
TTITLE0=Krauss, Alison - When You Say Nothing At All
TTITLE1=Lawrence, Tracy - As Any Fool Can See
TTITLE2=McCoy, Neil - For A Change
TTITLE3=Rogers, Kenny - You Decorated My Life
TTITLE4=Tillis, Pam - It's Lonely Out There
TTITLE5=Hill, Faith - Take Me As I Am
TTITLE6=Mavericks, The - O' What A Thrill
TTITLE7=Chesnutt, Mark - I Just Wanted You To Know
TTITLE8=Loveless, Patti - I Try To Think Of Elvis
TTITLE9=Jackson, Alan - I'll Try
TTITLE10=Gill, Vince - Look At Us
TTITLE11=Pride, Charlie - Is Anybody Going To San Antoine
TTITLE12=Tucker, Tanya - Love's The Answer
TTITLE13=Jackson, Alan - Midnight In Montgomery
TTITLE14=Morgan, Lorrie - By My Side
TTITLE15=Tubb, Ernest - Waltz Across Texas
TTITLE16=Wiggins, John and Audry - Has Anybody Seen Amy
TTITLE17=Chesnutt, Mark - She Dreams
EXTD=
EXTT0=
EXTT1=
EXTT2=
EXTT3=
EXTT4=
EXTT5=
EXTT6=
EXTT7=
EXTT8=
EXTT9=
EXTT10=
EXTT11=
EXTT12=
EXTT13=
EXTT14=
EXTT15=
EXTT16=
EXTT17=
PLAYORDER=
